<svg baseProfile="full" height="240px" version="1.1" width="320px" xmlns="http://www.w3.org/2000/svg" xmlns:ev="http://www.w3.org/2001/xml-events" xmlns:xlink="http://www.w3.org/1999/xlink"><defs /><rect fill="#666666" height="20.0" stroke="#666666" transform="rotate(0 224.000000 192.000000)" width="40.0" x="204.0" y="182.0" /><rect fill="white" height="20.0" stroke="#666666" transform="rotate(0 224.000000 144.000000)" width="40.0" x="204.0" y="134.0" /><rect fill="white" height="20.0" stroke="#666666" transform="rotate(0 224.000000 96.000000)" width="40.0" x="204.0" y="86.0" /><rect fill="white" height="20.0" stroke="#666666" transform="rotate(0 224.000000 48.000000)" width="40.0" x="204.0" y="38.0" /><rect fill="white" height="20.0" stroke="#666666" transform="rotate(0 96.000000 192.000000)" width="40.0" x="76.0" y="182.0" /><rect fill="white" height="20.0" stroke="#666666" transform="rotate(0 96.000000 144.000000)" width="40.0" x="76.0" y="134.0" /><rect fill="white" height="20.0" stroke="#666666" transform="rotate(0 96.000000 96.000000)" width="40.0" x="76.0" y="86.0" /><rect fill="white" height="20.0" stroke="#666666" transform="rotate(0 96.000000 48.000000)" width="40.0" x="76.0" y="38.0" /><rect fill="white" height="20.0" stroke="#666666" transform="rotate(0 160.000000 192.000000)" width="40.0" x="140.0" y="182.0" /><rect fill="white" height="20.0" stroke="#666666" transform="rotate(0 160.000000 48.000000)" width="40.0" x="140.0" y="38.0" /></svg>